{
	"asset":{
		"generator":"Khronos glTF Blender I/O v3.6.27",
		"version":"2.0"
	},
	"extensionsUsed":[
		"KHR_materials_emissive_strength",
		"KHR_materials_unlit"
	],
	"scene":0,
	"scenes":[
		{
			"name":"Scene",
			"nodes":[
				0,
				1,
				2,
				3,
				4,
				5,
				6
			]
		}
	],
	"nodes":[
		{
			"mesh":0,
			"name":"building"
		},
		{
			"mesh":1,
			"name":"landuse"
		},
		{
			"mesh":2,
			"name":"leisure"
		},
		{
			"mesh":3,
			"name":"natural"
		},
		{
			"name":"Ways:highway"
		},
		{
			"mesh":4,
			"name":"ground"
		},
		{
			"mesh":5,
			"name":"building-wireframe"
		}
	],
	"materials":[
		{
			"doubleSided":true,
			"emissiveFactor":[
				0.007639376006487256,
				0.06303184980213691,
				1
			],
			"extensions":{
				"KHR_materials_emissive_strength":{
					"emissiveStrength":1.4700000286102295
				}
			},
			"name":"cube-material",
			"pbrMetallicRoughness":{
				"baseColorFactor":[
					0,
					0,
					0,
					1
				]
			}
		},
		{
			"doubleSided":true,
			"extensions":{
				"KHR_materials_unlit":{}
			},
			"name":"\u6750\u8d28.014",
			"pbrMetallicRoughness":{
				"baseColorFactor":[
					0.4087322950363159,
					0.4329379200935364,
					0.8000000715255737,
					1
				],
				"metallicFactor":0,
				"roughnessFactor":0.9
			}
		},
		{
			"doubleSided":true,
			"emissiveFactor":[
				0.03086650929818547,
				0.0691286711889582,
				1
			],
			"extensions":{
				"KHR_materials_emissive_strength":{
					"emissiveStrength":16.961700217056205
				}
			},
			"name":"cube-box-material",
			"pbrMetallicRoughness":{
				"baseColorFactor":[
					0.800000011920929,
					0.800000011920929,
					0.800000011920929,
					1
				],
				"metallicFactor":0,
				"roughnessFactor":0.5
			}
		}
	],
	"meshes":[
		{
			"name":"Areas:building",
			"primitives":[
				{
					"attributes":{
						"POSITION":0,
						"NORMAL":1
					},
					"indices":2,
					"material":0
				}
			]
		},
		{
			"name":"Areas:landuse",
			"primitives":[
				{
					"attributes":{
						"POSITION":3,
						"NORMAL":4
					},
					"indices":5
				}
			]
		},
		{
			"name":"Areas:leisure",
			"primitives":[
				{
					"attributes":{
						"POSITION":6,
						"NORMAL":7
					},
					"indices":8
				}
			]
		},
		{
			"name":"Areas:natural",
			"primitives":[
				{
					"attributes":{
						"POSITION":9,
						"NORMAL":10
					},
					"indices":11
				}
			]
		},
		{
			"name":"\u5e73\u9762",
			"primitives":[
				{
					"attributes":{
						"POSITION":12,
						"NORMAL":13,
						"TEXCOORD_0":14
					},
					"indices":15,
					"material":1
				}
			]
		},
		{
			"name":"Areas:building.002",
			"primitives":[
				{
					"attributes":{
						"POSITION":16,
						"NORMAL":17
					},
					"indices":2,
					"material":2
				}
			]
		}
	],
	"accessors":[
		{
			"bufferView":0,
			"componentType":5126,
			"count":2238,
			"max":[
				162.24618530273438,
				17.594846725463867,
				83.27638244628906
			],
			"min":[
				-159.00424194335938,
				-0.39406734704971313,
				-115.00643920898438
			],
			"type":"VEC3"
		},
		{
			"bufferView":1,
			"componentType":5126,
			"count":2238,
			"type":"VEC3"
		},
		{
			"bufferView":2,
			"componentType":5123,
			"count":3726,
			"type":"SCALAR"
		},
		{
			"bufferView":3,
			"componentType":5126,
			"count":22,
			"max":[
				98.41930389404297,
				-0.39406734704971313,
				21.324745178222656
			],
			"min":[
				-3.0649185180664062,
				-0.39406734704971313,
				-54.80435562133789
			],
			"type":"VEC3"
		},
		{
			"bufferView":4,
			"componentType":5126,
			"count":22,
			"type":"VEC3"
		},
		{
			"bufferView":5,
			"componentType":5123,
			"count":36,
			"type":"SCALAR"
		},
		{
			"bufferView":6,
			"componentType":5126,
			"count":52,
			"max":[
				-21.404632568359375,
				5.902052879333496,
				17.01797103881836
			],
			"min":[
				-159.00424194335938,
				-0.39406734704971313,
				-108.66021728515625
			],
			"type":"VEC3"
		},
		{
			"bufferView":7,
			"componentType":5126,
			"count":52,
			"type":"VEC3"
		},
		{
			"bufferView":8,
			"componentType":5123,
			"count":96,
			"type":"SCALAR"
		},
		{
			"bufferView":9,
			"componentType":5126,
			"count":39,
			"max":[
				77.88349151611328,
				-0.39406734704971313,
				105.20346069335938
			],
			"min":[
				-69.06452941894531,
				-0.39406734704971313,
				-98.44801330566406
			],
			"type":"VEC3"
		},
		{
			"bufferView":10,
			"componentType":5126,
			"count":39,
			"type":"VEC3"
		},
		{
			"bufferView":11,
			"componentType":5123,
			"count":87,
			"type":"SCALAR"
		},
		{
			"bufferView":12,
			"componentType":5126,
			"count":4,
			"max":[
				196.7890167236328,
				-1.406491994857788,
				139.03848266601562
			],
			"min":[
				-200.43019104003906,
				-1.406491994857788,
				-156.27493286132812
			],
			"type":"VEC3"
		},
		{
			"bufferView":13,
			"componentType":5126,
			"count":4,
			"type":"VEC3"
		},
		{
			"bufferView":14,
			"componentType":5126,
			"count":4,
			"type":"VEC2"
		},
		{
			"bufferView":15,
			"componentType":5123,
			"count":6,
			"type":"SCALAR"
		},
		{
			"bufferView":16,
			"componentType":5126,
			"count":2238,
			"max":[
				162.24618530273438,
				17.594846725463867,
				83.27638244628906
			],
			"min":[
				-159.00424194335938,
				-0.39406734704971313,
				-115.00643920898438
			],
			"type":"VEC3"
		},
		{
			"bufferView":17,
			"componentType":5126,
			"count":2238,
			"type":"VEC3"
		}
	],
	"bufferViews":[
		{
			"buffer":0,
			"byteLength":26856,
			"byteOffset":0,
			"target":34962
		},
		{
			"buffer":0,
			"byteLength":26856,
			"byteOffset":26856,
			"target":34962
		},
		{
			"buffer":0,
			"byteLength":7452,
			"byteOffset":53712,
			"target":34963
		},
		{
			"buffer":0,
			"byteLength":264,
			"byteOffset":61164,
			"target":34962
		},
		{
			"buffer":0,
			"byteLength":264,
			"byteOffset":61428,
			"target":34962
		},
		{
			"buffer":0,
			"byteLength":72,
			"byteOffset":61692,
			"target":34963
		},
		{
			"buffer":0,
			"byteLength":624,
			"byteOffset":61764,
			"target":34962
		},
		{
			"buffer":0,
			"byteLength":624,
			"byteOffset":62388,
			"target":34962
		},
		{
			"buffer":0,
			"byteLength":192,
			"byteOffset":63012,
			"target":34963
		},
		{
			"buffer":0,
			"byteLength":468,
			"byteOffset":63204,
			"target":34962
		},
		{
			"buffer":0,
			"byteLength":468,
			"byteOffset":63672,
			"target":34962
		},
		{
			"buffer":0,
			"byteLength":174,
			"byteOffset":64140,
			"target":34963
		},
		{
			"buffer":0,
			"byteLength":48,
			"byteOffset":64316,
			"target":34962
		},
		{
			"buffer":0,
			"byteLength":48,
			"byteOffset":64364,
			"target":34962
		},
		{
			"buffer":0,
			"byteLength":32,
			"byteOffset":64412,
			"target":34962
		},
		{
			"buffer":0,
			"byteLength":12,
			"byteOffset":64444,
			"target":34963
		},
		{
			"buffer":0,
			"byteLength":26856,
			"byteOffset":64456,
			"target":34962
		},
		{
			"buffer":0,
			"byteLength":26856,
			"byteOffset":91312,
			"target":34962
		}
	],
	"buffers":[
		{
			"byteLength":118168,
			"uri":"model3.bin"
		}
	]
}
