{
	"asset":{
		"generator":"Khronos glTF Blender I/O v3.6.27",
		"version":"2.0"
	},
	"scene":0,
	"scenes":[
		{
			"name":"Scene",
			"nodes":[
				0,
				1,
				2,
				3,
				4,
				5,
				6
			]
		}
	],
	"nodes":[
		{
			"mesh":0,
			"name":"building"
		},
		{
			"mesh":1,
			"name":"landuse"
		},
		{
			"mesh":2,
			"name":"leisure"
		},
		{
			"mesh":3,
			"name":"natural"
		},
		{
			"mesh":4,
			"name":"Ways:highway"
		},
		{
			"mesh":5,
			"name":"ground"
		},
		{
			"mesh":6,
			"name":"building-wireframe"
		}
	],
	"meshes":[
		{
			"name":"Areas:building",
			"primitives":[
				{
					"attributes":{
						"POSITION":0,
						"NORMAL":1
					},
					"indices":2
				}
			]
		},
		{
			"name":"Areas:landuse",
			"primitives":[
				{
					"attributes":{
						"POSITION":3,
						"NORMAL":4
					},
					"indices":5
				},
				{
					"attributes":{
						"POSITION":6
					},
					"mode":0
				}
			]
		},
		{
			"name":"Areas:leisure",
			"primitives":[
				{
					"attributes":{
						"POSITION":7,
						"NORMAL":8
					},
					"indices":9
				},
				{
					"attributes":{
						"POSITION":10
					},
					"mode":0
				}
			]
		},
		{
			"name":"Areas:natural",
			"primitives":[
				{
					"attributes":{
						"POSITION":11,
						"NORMAL":12
					},
					"indices":13
				},
				{
					"attributes":{
						"POSITION":14
					},
					"mode":0
				}
			]
		},
		{
			"name":"Ways:highway",
			"primitives":[
				{
					"attributes":{
						"POSITION":15
					},
					"indices":16,
					"mode":1
				},
				{
					"attributes":{
						"POSITION":17
					},
					"mode":0
				}
			]
		},
		{
			"name":"\u5e73\u9762",
			"primitives":[
				{
					"attributes":{
						"POSITION":18,
						"NORMAL":19,
						"TEXCOORD_0":20,
						"TANGENT":21
					},
					"indices":22
				}
			]
		},
		{
			"name":"Areas:building.002",
			"primitives":[
				{
					"attributes":{
						"POSITION":23,
						"NORMAL":24
					},
					"indices":25
				}
			]
		}
	],
	"accessors":[
		{
			"bufferView":0,
			"componentType":5126,
			"count":2238,
			"max":[
				162.24618530273438,
				17.594846725463867,
				83.27638244628906
			],
			"min":[
				-159.00424194335938,
				-0.39406734704971313,
				-115.00643920898438
			],
			"type":"VEC3"
		},
		{
			"bufferView":1,
			"componentType":5126,
			"count":2238,
			"type":"VEC3"
		},
		{
			"bufferView":2,
			"componentType":5123,
			"count":3726,
			"type":"SCALAR"
		},
		{
			"bufferView":3,
			"componentType":5126,
			"count":22,
			"max":[
				98.41930389404297,
				-0.39406734704971313,
				21.324745178222656
			],
			"min":[
				-3.0649185180664062,
				-0.39406734704971313,
				-54.80435562133789
			],
			"type":"VEC3"
		},
		{
			"bufferView":4,
			"componentType":5126,
			"count":22,
			"type":"VEC3"
		},
		{
			"bufferView":5,
			"componentType":5123,
			"count":36,
			"type":"SCALAR"
		},
		{
			"bufferView":6,
			"componentType":5126,
			"count":25,
			"max":[
				404.5140075683594,
				-0.39406734704971313,
				166.3387908935547
			],
			"min":[
				-308.7023620605469,
				-0.39406734704971313,
				53.609642028808594
			],
			"type":"VEC3"
		},
		{
			"bufferView":7,
			"componentType":5126,
			"count":52,
			"max":[
				-21.404632568359375,
				5.902052879333496,
				17.01797103881836
			],
			"min":[
				-159.00424194335938,
				-0.39406734704971313,
				-108.66021728515625
			],
			"type":"VEC3"
		},
		{
			"bufferView":8,
			"componentType":5126,
			"count":52,
			"type":"VEC3"
		},
		{
			"bufferView":9,
			"componentType":5123,
			"count":96,
			"type":"SCALAR"
		},
		{
			"bufferView":10,
			"componentType":5126,
			"count":13,
			"max":[
				-188.21426391601562,
				-0.39406734704971313,
				-43.238040924072266
			],
			"min":[
				-213.01547241210938,
				-0.39406734704971313,
				-90.45622253417969
			],
			"type":"VEC3"
		},
		{
			"bufferView":11,
			"componentType":5126,
			"count":39,
			"max":[
				77.88349151611328,
				-0.39406734704971313,
				105.20346069335938
			],
			"min":[
				-69.06452941894531,
				-0.39406734704971313,
				-98.44801330566406
			],
			"type":"VEC3"
		},
		{
			"bufferView":12,
			"componentType":5126,
			"count":39,
			"type":"VEC3"
		},
		{
			"bufferView":13,
			"componentType":5123,
			"count":87,
			"type":"SCALAR"
		},
		{
			"bufferView":14,
			"componentType":5126,
			"count":46,
			"max":[
				-51.76947021484375,
				-0.39406734704971313,
				-120.21099853515625
			],
			"min":[
				-244.07113647460938,
				-0.39406734704971313,
				-333.18255615234375
			],
			"type":"VEC3"
		},
		{
			"bufferView":15,
			"componentType":5126,
			"count":332,
			"max":[
				185.051513671875,
				-0.39406734704971313,
				123.61897277832031
			],
			"min":[
				-182.8475341796875,
				-0.39406734704971313,
				-129.1634521484375
			],
			"type":"VEC3"
		},
		{
			"bufferView":16,
			"componentType":5123,
			"count":502,
			"type":"SCALAR"
		},
		{
			"bufferView":17,
			"componentType":5126,
			"count":6,
			"max":[
				99.15689849853516,
				-0.39406734704971313,
				-123.88803100585938
			],
			"min":[
				-180.978515625,
				-0.39406734704971313,
				-128.7776336669922
			],
			"type":"VEC3"
		},
		{
			"bufferView":18,
			"componentType":5126,
			"count":4,
			"max":[
				196.7890167236328,
				-1.406491994857788,
				139.03848266601562
			],
			"min":[
				-200.43019104003906,
				-1.406491994857788,
				-156.27493286132812
			],
			"type":"VEC3"
		},
		{
			"bufferView":19,
			"componentType":5126,
			"count":4,
			"type":"VEC3"
		},
		{
			"bufferView":20,
			"componentType":5126,
			"count":4,
			"type":"VEC2"
		},
		{
			"bufferView":21,
			"componentType":5126,
			"count":4,
			"type":"VEC4"
		},
		{
			"bufferView":22,
			"componentType":5123,
			"count":6,
			"type":"SCALAR"
		},
		{
			"bufferView":23,
			"componentType":5126,
			"count":17920,
			"max":[
				162.29122924804688,
				17.639394760131836,
				83.32218933105469
			],
			"min":[
				-159.04942321777344,
				-0.39406734704971313,
				-115.05133056640625
			],
			"type":"VEC3"
		},
		{
			"bufferView":24,
			"componentType":5126,
			"count":17920,
			"type":"VEC3"
		},
		{
			"bufferView":25,
			"componentType":5123,
			"count":26880,
			"type":"SCALAR"
		}
	],
	"bufferViews":[
		{
			"buffer":0,
			"byteLength":26856,
			"byteOffset":0,
			"target":34962
		},
		{
			"buffer":0,
			"byteLength":26856,
			"byteOffset":26856,
			"target":34962
		},
		{
			"buffer":0,
			"byteLength":7452,
			"byteOffset":53712,
			"target":34963
		},
		{
			"buffer":0,
			"byteLength":264,
			"byteOffset":61164,
			"target":34962
		},
		{
			"buffer":0,
			"byteLength":264,
			"byteOffset":61428,
			"target":34962
		},
		{
			"buffer":0,
			"byteLength":72,
			"byteOffset":61692,
			"target":34963
		},
		{
			"buffer":0,
			"byteLength":300,
			"byteOffset":61764,
			"target":34962
		},
		{
			"buffer":0,
			"byteLength":624,
			"byteOffset":62064,
			"target":34962
		},
		{
			"buffer":0,
			"byteLength":624,
			"byteOffset":62688,
			"target":34962
		},
		{
			"buffer":0,
			"byteLength":192,
			"byteOffset":63312,
			"target":34963
		},
		{
			"buffer":0,
			"byteLength":156,
			"byteOffset":63504,
			"target":34962
		},
		{
			"buffer":0,
			"byteLength":468,
			"byteOffset":63660,
			"target":34962
		},
		{
			"buffer":0,
			"byteLength":468,
			"byteOffset":64128,
			"target":34962
		},
		{
			"buffer":0,
			"byteLength":174,
			"byteOffset":64596,
			"target":34963
		},
		{
			"buffer":0,
			"byteLength":552,
			"byteOffset":64772,
			"target":34962
		},
		{
			"buffer":0,
			"byteLength":3984,
			"byteOffset":65324,
			"target":34962
		},
		{
			"buffer":0,
			"byteLength":1004,
			"byteOffset":69308,
			"target":34963
		},
		{
			"buffer":0,
			"byteLength":72,
			"byteOffset":70312,
			"target":34962
		},
		{
			"buffer":0,
			"byteLength":48,
			"byteOffset":70384,
			"target":34962
		},
		{
			"buffer":0,
			"byteLength":48,
			"byteOffset":70432,
			"target":34962
		},
		{
			"buffer":0,
			"byteLength":32,
			"byteOffset":70480,
			"target":34962
		},
		{
			"buffer":0,
			"byteLength":64,
			"byteOffset":70512,
			"target":34962
		},
		{
			"buffer":0,
			"byteLength":12,
			"byteOffset":70576,
			"target":34963
		},
		{
			"buffer":0,
			"byteLength":215040,
			"byteOffset":70588,
			"target":34962
		},
		{
			"buffer":0,
			"byteLength":215040,
			"byteOffset":285628,
			"target":34962
		},
		{
			"buffer":0,
			"byteLength":53760,
			"byteOffset":500668,
			"target":34963
		}
	],
	"buffers":[
		{
			"byteLength":554428,
			"uri":"model3.bin"
		}
	]
}
