{
	"asset":{
		"generator":"Khronos glTF Blender I/O v3.6.27",
		"version":"2.0"
	},
	"extensionsUsed":[
		"KHR_materials_emissive_strength"
	],
	"scene":0,
	"scenes":[
		{
			"name":"Scene",
			"nodes":[
				0,
				1,
				2,
				3
			]
		}
	],
	"nodes":[
		{
			"mesh":0,
			"name":"Cube"
		},
		{
			"mesh":1,
			"name":"Cube.001"
		},
		{
			"name":"Material_Preview_Dummy"
		},
		{
			"mesh":2,
			"name":"\u7acb\u65b9\u4f53",
			"translation":[
				0.01801121234893799,
				0.13644027709960938,
				7.097319602966309
			]
		}
	],
	"materials":[
		{
			"doubleSided":true,
			"emissiveFactor":[
				0.007639376006487256,
				0.06303184980213691,
				1
			],
			"extensions":{
				"KHR_materials_emissive_strength":{
					"emissiveStrength":1.4700000286102295
				}
			},
			"name":"cube-material",
			"pbrMetallicRoughness":{
				"baseColorFactor":[
					0,
					0,
					0,
					1
				]
			}
		},
		{
			"doubleSided":true,
			"emissiveFactor":[
				0.03086650929818547,
				0.0691286711889582,
				1
			],
			"extensions":{
				"KHR_materials_emissive_strength":{
					"emissiveStrength":16.961700217056205
				}
			},
			"name":"cube-box-material",
			"pbrMetallicRoughness":{
				"baseColorFactor":[
					0.800000011920929,
					0.800000011920929,
					0.800000011920929,
					1
				],
				"metallicFactor":0,
				"roughnessFactor":0.5
			}
		}
	],
	"meshes":[
		{
			"name":"Cube",
			"primitives":[
				{
					"attributes":{
						"POSITION":0,
						"NORMAL":1,
						"TEXCOORD_0":2,
						"TANGENT":3
					},
					"indices":4,
					"material":0
				}
			]
		},
		{
			"name":"Cube.001",
			"primitives":[
				{
					"attributes":{
						"POSITION":5,
						"NORMAL":6,
						"TEXCOORD_0":7,
						"TANGENT":8
					},
					"indices":9,
					"material":1
				}
			]
		},
		{
			"name":"\u7acb\u65b9\u4f53.001",
			"primitives":[
				{
					"attributes":{
						"POSITION":10,
						"NORMAL":11,
						"TEXCOORD_0":12,
						"TANGENT":13
					},
					"indices":14,
					"material":0
				}
			]
		}
	],
	"accessors":[
		{
			"bufferView":0,
			"componentType":5126,
			"count":24,
			"max":[
				1,
				1,
				1
			],
			"min":[
				-1,
				-1,
				-1
			],
			"type":"VEC3"
		},
		{
			"bufferView":1,
			"componentType":5126,
			"count":24,
			"type":"VEC3"
		},
		{
			"bufferView":2,
			"componentType":5126,
			"count":24,
			"type":"VEC2"
		},
		{
			"bufferView":3,
			"componentType":5126,
			"count":24,
			"type":"VEC4"
		},
		{
			"bufferView":4,
			"componentType":5123,
			"count":36,
			"type":"SCALAR"
		},
		{
			"bufferView":5,
			"componentType":5126,
			"count":192,
			"max":[
				1.0057735443115234,
				1.0057735443115234,
				1.0057735443115234
			],
			"min":[
				-1.0057735443115234,
				-1.0057735443115234,
				-1.0057735443115234
			],
			"type":"VEC3"
		},
		{
			"bufferView":6,
			"componentType":5126,
			"count":192,
			"type":"VEC3"
		},
		{
			"bufferView":7,
			"componentType":5126,
			"count":192,
			"type":"VEC2"
		},
		{
			"bufferView":8,
			"componentType":5126,
			"count":192,
			"type":"VEC4"
		},
		{
			"bufferView":9,
			"componentType":5123,
			"count":288,
			"type":"SCALAR"
		},
		{
			"bufferView":10,
			"componentType":5126,
			"count":24,
			"max":[
				1,
				1,
				1
			],
			"min":[
				-1,
				-1,
				-1
			],
			"type":"VEC3"
		},
		{
			"bufferView":11,
			"componentType":5126,
			"count":24,
			"type":"VEC3"
		},
		{
			"bufferView":12,
			"componentType":5126,
			"count":24,
			"type":"VEC2"
		},
		{
			"bufferView":13,
			"componentType":5126,
			"count":24,
			"type":"VEC4"
		},
		{
			"bufferView":14,
			"componentType":5123,
			"count":36,
			"type":"SCALAR"
		}
	],
	"bufferViews":[
		{
			"buffer":0,
			"byteLength":288,
			"byteOffset":0,
			"target":34962
		},
		{
			"buffer":0,
			"byteLength":288,
			"byteOffset":288,
			"target":34962
		},
		{
			"buffer":0,
			"byteLength":192,
			"byteOffset":576,
			"target":34962
		},
		{
			"buffer":0,
			"byteLength":384,
			"byteOffset":768,
			"target":34962
		},
		{
			"buffer":0,
			"byteLength":72,
			"byteOffset":1152,
			"target":34963
		},
		{
			"buffer":0,
			"byteLength":2304,
			"byteOffset":1224,
			"target":34962
		},
		{
			"buffer":0,
			"byteLength":2304,
			"byteOffset":3528,
			"target":34962
		},
		{
			"buffer":0,
			"byteLength":1536,
			"byteOffset":5832,
			"target":34962
		},
		{
			"buffer":0,
			"byteLength":3072,
			"byteOffset":7368,
			"target":34962
		},
		{
			"buffer":0,
			"byteLength":576,
			"byteOffset":10440,
			"target":34963
		},
		{
			"buffer":0,
			"byteLength":288,
			"byteOffset":11016,
			"target":34962
		},
		{
			"buffer":0,
			"byteLength":288,
			"byteOffset":11304,
			"target":34962
		},
		{
			"buffer":0,
			"byteLength":192,
			"byteOffset":11592,
			"target":34962
		},
		{
			"buffer":0,
			"byteLength":384,
			"byteOffset":11784,
			"target":34962
		},
		{
			"buffer":0,
			"byteLength":72,
			"byteOffset":12168,
			"target":34963
		}
	],
	"buffers":[
		{
			"byteLength":12240,
			"uri":"model2.bin"
		}
	]
}
